<svg width="200" height="45" viewBox="0 0 200 45" fill="none" xmlns="http://www.w3.org/2000/svg">
<path d="M11.3631 27.519V17.775H16.0031V26.504C16.0031 27.432 16.1868 28.1473 16.5541 28.65C16.9214 29.1333 17.4434 29.375 18.1201 29.375C18.5454 29.375 18.9514 29.3073 19.3381 29.172C19.7248 29.0173 20.1018 28.7757 20.4691 28.447C20.8364 28.1183 21.1651 27.693 21.4551 27.171V17.775H26.0951V27.838C26.0951 28.302 26.1628 28.6307 26.2981 28.824C26.4528 28.998 26.7138 29.1043 27.0811 29.143V33C26.6558 33.0773 26.2788 33.1353 25.9501 33.174C25.6408 33.2127 25.3604 33.232 25.1091 33.232C24.2971 33.232 23.6494 33.0677 23.1661 32.739C22.6828 32.391 22.3831 31.9077 22.2671 31.289L22.1801 30.361C21.4841 31.3663 20.6141 32.1107 19.5701 32.594C18.5454 33.058 17.3951 33.29 16.1191 33.29C14.5724 33.29 13.3931 32.797 12.5811 31.811C11.7691 30.825 11.3631 29.3943 11.3631 27.519ZM39.3177 33.29C38.1771 33.29 37.1814 33.0483 36.3307 32.565C35.4801 32.0623 34.8131 31.3857 34.3297 30.535V39.177H29.6897V17.775H33.7207V20.24C34.2814 19.37 34.9871 18.6933 35.8377 18.21C36.6884 17.7267 37.6841 17.485 38.8247 17.485C39.8494 17.485 40.7871 17.688 41.6377 18.094C42.5077 18.5 43.2617 19.0607 43.8997 19.776C44.5377 20.4913 45.0307 21.3227 45.3787 22.27C45.7267 23.2173 45.9007 24.242 45.9007 25.344C45.9007 26.852 45.6204 28.2053 45.0597 29.404C44.4991 30.6027 43.7161 31.55 42.7107 32.246C41.7247 32.942 40.5937 33.29 39.3177 33.29ZM37.7517 29.375C38.2544 29.375 38.7087 29.2687 39.1147 29.056C39.5401 28.824 39.9074 28.5243 40.2167 28.157C40.5261 27.7897 40.7581 27.3643 40.9127 26.881C41.0867 26.3783 41.1737 25.8563 41.1737 25.315C41.1737 24.7543 41.0771 24.242 40.8837 23.778C40.7097 23.314 40.4584 22.908 40.1297 22.56C39.8011 22.1927 39.4144 21.9123 38.9697 21.719C38.5251 21.5257 38.0417 21.429 37.5197 21.429C37.2104 21.429 36.8914 21.4773 36.5627 21.574C36.2534 21.6707 35.9537 21.8157 35.6637 22.009C35.3931 22.183 35.1417 22.3957 34.9097 22.647C34.6777 22.8983 34.4844 23.1883 34.3297 23.517V26.649C34.5424 27.171 34.8227 27.635 35.1707 28.041C35.5187 28.447 35.9151 28.7757 36.3597 29.027C36.8044 29.259 37.2684 29.375 37.7517 29.375ZM69.5976 32.188C69.1722 32.362 68.6986 32.536 68.1766 32.71C67.6739 32.884 67.1422 33.0193 66.5816 33.116C66.0209 33.232 65.4699 33.29 64.9286 33.29C64.1552 33.29 63.4399 33.1643 62.7826 32.913C62.1446 32.6423 61.6322 32.2073 61.2456 31.608C60.8782 31.0087 60.6946 30.216 60.6946 29.23V21.284H58.7516V17.775H60.6946V12.932H65.3346V17.775H68.4376V21.284H65.3346V27.635C65.3346 28.1377 65.4602 28.505 65.7116 28.737C65.9629 28.9497 66.2819 29.056 66.6686 29.056C66.9972 29.056 67.3452 28.998 67.7126 28.882C68.0992 28.766 68.4279 28.6403 68.6986 28.505L69.5976 32.188ZM78.4856 33.29C77.1903 33.29 76.0303 33.0773 75.0056 32.652C74.0003 32.2267 73.1496 31.6467 72.4536 30.912C71.7576 30.1773 71.226 29.3363 70.8586 28.389C70.5106 27.4417 70.3366 26.446 70.3366 25.402C70.3366 24.3387 70.5106 23.3333 70.8586 22.386C71.226 21.4387 71.7576 20.5977 72.4536 19.863C73.1496 19.1283 74.0003 18.5483 75.0056 18.123C76.0303 17.6977 77.1903 17.485 78.4856 17.485C79.781 17.485 80.9313 17.6977 81.9366 18.123C82.942 18.5483 83.7926 19.1283 84.4886 19.863C85.1846 20.5977 85.7163 21.4387 86.0836 22.386C86.451 23.3333 86.6346 24.3387 86.6346 25.402C86.6346 26.446 86.451 27.4417 86.0836 28.389C85.7163 29.3363 85.1846 30.1773 84.4886 30.912C83.7926 31.6467 82.942 32.2267 81.9366 32.652C80.9313 33.0773 79.781 33.29 78.4856 33.29ZM75.0926 25.402C75.0926 26.1947 75.2376 26.8907 75.5276 27.49C75.837 28.0893 76.243 28.5533 76.7456 28.882C77.2483 29.2107 77.8283 29.375 78.4856 29.375C79.1236 29.375 79.694 29.2107 80.1966 28.882C80.7186 28.534 81.1246 28.0603 81.4146 27.461C81.7046 26.8617 81.8496 26.1753 81.8496 25.402C81.8496 24.6093 81.7046 23.9133 81.4146 23.314C81.1246 22.7147 80.7186 22.2507 80.1966 21.922C79.694 21.5933 79.1236 21.429 78.4856 21.429C77.8283 21.429 77.2483 21.5933 76.7456 21.922C76.243 22.2507 75.837 22.7147 75.5276 23.314C75.2376 23.9133 75.0926 24.6093 75.0926 25.402ZM95.2875 25.373C95.2875 23.8843 95.5775 22.5503 96.1575 21.371C96.7375 20.1723 97.5302 19.225 98.5355 18.529C99.5408 17.833 100.701 17.485 102.015 17.485C103.079 17.485 104.046 17.746 104.916 18.268C105.786 18.7707 106.443 19.4377 106.888 20.269V11.83H111.528V27.838C111.528 28.302 111.605 28.6307 111.76 28.824C111.914 28.998 112.166 29.1043 112.514 29.143V33C111.702 33.1547 111.044 33.232 110.541 33.232C109.749 33.232 109.101 33.058 108.599 32.71C108.115 32.362 107.816 31.8787 107.7 31.26L107.613 30.477C107.071 31.4243 106.337 32.13 105.409 32.594C104.481 33.058 103.504 33.29 102.48 33.29C101.436 33.29 100.469 33.0967 99.5795 32.71C98.7095 32.304 97.9458 31.7433 97.2885 31.028C96.6505 30.3127 96.1575 29.4717 95.8095 28.505C95.4615 27.5383 95.2875 26.4943 95.2875 25.373ZM106.917 27.258V24.068C106.723 23.546 106.443 23.0917 106.076 22.705C105.728 22.3183 105.322 22.009 104.858 21.777C104.413 21.545 103.959 21.429 103.495 21.429C102.992 21.429 102.528 21.5353 102.103 21.748C101.697 21.9607 101.339 22.2603 101.03 22.647C100.72 23.0143 100.479 23.4397 100.305 23.923C100.15 24.4063 100.073 24.9187 100.073 25.46C100.073 26.0207 100.16 26.5427 100.334 27.026C100.527 27.49 100.788 27.9057 101.117 28.273C101.445 28.621 101.832 28.8917 102.277 29.085C102.721 29.2783 103.205 29.375 103.727 29.375C104.055 29.375 104.374 29.3267 104.684 29.23C104.993 29.114 105.283 28.969 105.554 28.795C105.844 28.621 106.105 28.3987 106.337 28.128C106.569 27.8573 106.762 27.5673 106.917 27.258ZM114.175 28.447C114.175 27.4417 114.455 26.562 115.016 25.808C115.577 25.054 116.35 24.4643 117.336 24.039C118.322 23.5943 119.453 23.372 120.729 23.372C121.348 23.372 121.957 23.43 122.556 23.546C123.155 23.6427 123.677 23.7877 124.122 23.981V23.314C124.122 22.4827 123.871 21.8447 123.368 21.4C122.865 20.9553 122.102 20.733 121.077 20.733C120.226 20.733 119.424 20.878 118.67 21.168C117.935 21.458 117.152 21.8737 116.321 22.415L114.929 19.457C115.934 18.7997 116.978 18.3067 118.061 17.978C119.163 17.6493 120.323 17.485 121.541 17.485C123.822 17.485 125.591 18.036 126.848 19.138C128.124 20.2207 128.762 21.7963 128.762 23.865V27.838C128.762 28.302 128.83 28.6307 128.965 28.824C129.12 28.998 129.381 29.1043 129.748 29.143V33C129.361 33.0773 128.994 33.1353 128.646 33.174C128.317 33.2127 128.027 33.232 127.776 33.232C126.906 33.232 126.239 33.058 125.775 32.71C125.33 32.362 125.05 31.8883 124.934 31.289L124.847 30.622C124.17 31.492 123.358 32.159 122.411 32.623C121.483 33.0677 120.507 33.29 119.482 33.29C118.477 33.29 117.568 33.0773 116.756 32.652C115.963 32.2267 115.335 31.6467 114.871 30.912C114.407 30.1773 114.175 29.3557 114.175 28.447ZM123.397 29.027C123.61 28.853 123.784 28.6597 123.919 28.447C124.054 28.2343 124.122 28.0313 124.122 27.838V26.475C123.735 26.3203 123.3 26.2043 122.817 26.127C122.353 26.0303 121.918 25.982 121.512 25.982C120.661 25.982 119.956 26.1753 119.395 26.562C118.834 26.9293 118.554 27.4223 118.554 28.041C118.554 28.389 118.651 28.708 118.844 28.998C119.037 29.288 119.298 29.52 119.627 29.694C119.975 29.868 120.381 29.955 120.845 29.955C121.309 29.955 121.773 29.868 122.237 29.694C122.701 29.52 123.088 29.2977 123.397 29.027ZM141.843 32.188C141.417 32.362 140.944 32.536 140.422 32.71C139.919 32.884 139.387 33.0193 138.827 33.116C138.266 33.232 137.715 33.29 137.174 33.29C136.4 33.29 135.685 33.1643 135.028 32.913C134.39 32.6423 133.877 32.2073 133.491 31.608C133.123 31.0087 132.94 30.216 132.94 29.23V21.284H130.997V17.775H132.94V12.932H137.58V17.775H140.683V21.284H137.58V27.635C137.58 28.1377 137.705 28.505 137.957 28.737C138.208 28.9497 138.527 29.056 138.914 29.056C139.242 29.056 139.59 28.998 139.958 28.882C140.344 28.766 140.673 28.6403 140.944 28.505L141.843 32.188ZM150.76 33.29C149.464 33.29 148.314 33.087 147.309 32.681C146.303 32.2557 145.443 31.6853 144.728 30.97C144.032 30.2547 143.5 29.433 143.133 28.505C142.765 27.5577 142.582 26.5717 142.582 25.547C142.582 24.0777 142.901 22.7437 143.539 21.545C144.196 20.327 145.134 19.3507 146.352 18.616C147.57 17.862 149.039 17.485 150.76 17.485C152.48 17.485 153.94 17.8523 155.139 18.587C156.357 19.3217 157.285 20.2883 157.923 21.487C158.561 22.6663 158.88 23.952 158.88 25.344C158.88 25.6147 158.86 25.8853 158.822 26.156C158.802 26.4073 158.783 26.6297 158.764 26.823H147.512C147.57 27.4997 147.753 28.07 148.063 28.534C148.391 28.998 148.807 29.3557 149.31 29.607C149.812 29.839 150.344 29.955 150.905 29.955C151.601 29.955 152.248 29.7907 152.848 29.462C153.466 29.1333 153.892 28.6887 154.124 28.128L158.068 29.23C157.681 30.0227 157.13 30.7283 156.415 31.347C155.719 31.9463 154.887 32.42 153.921 32.768C152.973 33.116 151.92 33.29 150.76 33.29ZM147.396 23.981H154.008C153.93 23.343 153.747 22.792 153.457 22.328C153.167 21.8447 152.78 21.4773 152.297 21.226C151.813 20.9553 151.282 20.82 150.702 20.82C150.102 20.82 149.561 20.9553 149.078 21.226C148.614 21.4773 148.237 21.8447 147.947 22.328C147.657 22.792 147.473 23.343 147.396 23.981ZM179.031 25.895C179.031 25.2957 179.089 24.735 179.205 24.213C179.321 23.691 179.543 23.198 179.872 22.734C180.22 22.27 180.723 21.8543 181.38 21.487C181.631 21.3323 181.96 21.1583 182.366 20.965C182.791 20.7523 183.207 20.501 183.613 20.211C184.019 19.921 184.357 19.5827 184.628 19.196C184.918 18.8093 185.063 18.384 185.063 17.92C185.063 17.4947 184.947 17.137 184.715 16.847C184.502 16.5377 184.222 16.3057 183.874 16.151C183.545 15.977 183.178 15.89 182.772 15.89C182.269 15.89 181.825 16.006 181.438 16.238C181.071 16.47 180.761 16.7503 180.51 17.079C180.259 17.3883 180.036 17.688 179.843 17.978L176.856 15.89C177.185 15.0973 177.649 14.4303 178.248 13.889C178.867 13.3283 179.572 12.903 180.365 12.613C181.177 12.3037 182.037 12.149 182.946 12.149C183.661 12.149 184.386 12.2553 185.121 12.468C185.856 12.6807 186.523 13.019 187.122 13.483C187.721 13.947 188.195 14.556 188.543 15.31C188.91 16.0447 189.094 16.9243 189.094 17.949C189.094 18.5097 189.036 19.022 188.92 19.486C188.823 19.9307 188.659 20.3463 188.427 20.733C188.195 21.1003 187.905 21.4483 187.557 21.777C187.209 22.0863 186.822 22.386 186.397 22.676C185.856 23.024 185.314 23.343 184.773 23.633C184.232 23.9037 183.777 24.213 183.41 24.561C183.043 24.909 182.859 25.3537 182.859 25.895H179.031ZM179.118 33V28.65H182.917V33H179.118Z" fill="#6366F1"/>
<path d="M49.8635 25.837C49.3609 25.837 48.9355 25.6727 48.5875 25.344C48.2589 25.0153 48.0945 24.5997 48.0945 24.097C48.0945 23.5943 48.2589 23.1883 48.5875 22.879C48.9355 22.5503 49.3609 22.386 49.8635 22.386H54.9095C55.4122 22.386 55.8279 22.56 56.1565 22.908C56.5045 23.2367 56.6785 23.6523 56.6785 24.155C56.6785 24.6383 56.5045 25.0443 56.1565 25.373C55.8279 25.6823 55.4122 25.837 54.9095 25.837H49.8635ZM90.7628 32.971C90.2022 32.971 89.7672 32.826 89.4578 32.536C89.1678 32.2267 89.0228 31.7917 89.0228 31.231V30.738C89.0228 30.1773 89.1678 29.752 89.4578 29.462C89.7672 29.1527 90.2022 28.998 90.7628 28.998H91.1398C91.7005 28.998 92.1258 29.1527 92.4158 29.462C92.7252 29.752 92.8798 30.1773 92.8798 30.738V31.231C92.8798 31.7917 92.7252 32.2267 92.4158 32.536C92.1258 32.826 91.7005 32.971 91.1398 32.971H90.7628ZM161.824 36.886C161.495 36.886 161.157 36.7507 160.809 36.48C160.461 36.2093 160.287 35.8613 160.287 35.436C160.287 35.204 160.345 34.972 160.461 34.74L172.235 10.641C172.37 10.3703 172.554 10.1577 172.786 10.003C173.018 9.84833 173.259 9.771 173.511 9.771C173.839 9.771 174.168 9.90633 174.497 10.177C174.845 10.4283 175.019 10.7763 175.019 11.221C175.019 11.453 174.961 11.685 174.845 11.917L163.1 36.016C162.964 36.2867 162.781 36.4993 162.549 36.654C162.336 36.8087 162.094 36.886 161.824 36.886Z" fill="#F472B6"/>
</svg>
